<svg xmlns="http://www.w3.org/2000/svg" viewBox="0 0 860 240" width="860" height="240">
<style>
            .terminal { font-family: ui-monospace, SFMono-Regular, "SF Mono", Menlo, Consolas, monospace; }
            .bg { fill: #0d1117; }
            .box { rx: 2; ry: 2; }
            .anim-box {
                opacity: 0;
                transform: scale(0.8);
                animation: popIn 0.3s forwards;
            }
            .text-muted { fill: #8b949e; font-size: 12px; }
            .text-bold { fill: #c9d1d9; font-weight: bold; font-size: 14px; }
            .prompt-bg { fill: #21262d; rx: 6; ry: 6; }
            .prompt-text { fill: #ffffff; font-weight: bold; font-size: 18px; }
            @keyframes popIn {
                to { opacity: 1; transform: scale(1); }
            }
        </style>
<rect class="bg" width="860" height="240" />
<rect class="prompt-bg" x="230" y="15" width="400" height="36" />
<text x="430" y="39" class="terminal prompt-text" text-anchor="middle">avi@github ~ $ ./contributions.sh</text>
<text x="32" y="104" class="terminal text-muted" text-anchor="end">Mon</text>
<text x="32" y="132" class="terminal text-muted" text-anchor="end">Wed</text>
<text x="32" y="160" class="terminal text-muted" text-anchor="end">Fri</text>
<text x="40" y="72" class="terminal text-muted">Oct</text>
<text x="54" y="72" class="terminal text-muted">Nov</text>
<text x="68" y="72" class="terminal text-muted">Jan</text>
<text x="82" y="72" class="terminal text-muted">Mar</text>
<text x="96" y="72" class="terminal text-muted">Apr</text>
<text x="110" y="72" class="terminal text-muted">Jun</text>
<text x="124" y="72" class="terminal text-muted">Jul</text>
<text x="138" y="72" class="terminal text-muted">Sep</text>
<text x="152" y="72" class="terminal text-muted">Oct</text>
<text x="166" y="72" class="terminal text-muted">Dec</text>
<text x="180" y="72" class="terminal text-muted">Feb</text>
<text x="194" y="72" class="terminal text-muted">Mar</text>
<text x="208" y="72" class="terminal text-muted">May</text>
<text x="222" y="72" class="terminal text-muted">Jun</text>
<text x="236" y="72" class="terminal text-muted">Aug</text>
<text x="250" y="72" class="terminal text-muted">Oct</text>
<text x="264" y="72" class="terminal text-muted">Nov</text>
<text x="278" y="72" class="terminal text-muted">Jan</text>
<text x="292" y="72" class="terminal text-muted">Feb</text>
<text x="306" y="72" class="terminal text-muted">Apr</text>
<text x="320" y="72" class="terminal text-muted">Jun</text>
<text x="334" y="72" class="terminal text-muted">Jul</text>
<text x="348" y="72" class="terminal text-muted">Sep</text>
<text x="362" y="72" class="terminal text-muted">Oct</text>
<text x="376" y="72" class="terminal text-muted">Dec</text>
<text x="390" y="72" class="terminal text-muted">Jan</text>
<text x="404" y="72" class="terminal text-muted">Mar</text>
<text x="418" y="72" class="terminal text-muted">May</text>
<text x="432" y="72" class="terminal text-muted">Jun</text>
<text x="446" y="72" class="terminal text-muted">Aug</text>
<text x="460" y="72" class="terminal text-muted">Sep</text>
<text x="474" y="72" class="terminal text-muted">Nov</text>
<text x="488" y="72" class="terminal text-muted">Jan</text>
<text x="502" y="72" class="terminal text-muted">Feb</text>
<text x="516" y="72" class="terminal text-muted">Apr</text>
<text x="530" y="72" class="terminal text-muted">Jun</text>
<text x="544" y="72" class="terminal text-muted">Jul</text>
<text x="558" y="72" class="terminal text-muted">Sep</text>
<text x="572" y="72" class="terminal text-muted">Oct</text>
<text x="586" y="72" class="terminal text-muted">Dec</text>
<text x="600" y="72" class="terminal text-muted">Feb</text>
<text x="614" y="72" class="terminal text-muted">Mar</text>
<text x="628" y="72" class="terminal text-muted">May</text>
<text x="642" y="72" class="terminal text-muted">Jul</text>
<text x="656" y="72" class="terminal text-muted">Aug</text>
<text x="670" y="72" class="terminal text-muted">Oct</text>
<text x="684" y="72" class="terminal text-muted">Nov</text>
<text x="698" y="72" class="terminal text-muted">Jan</text>
<text x="712" y="72" class="terminal text-muted">Mar</text>
<text x="726" y="72" class="terminal text-muted">Apr</text>
<text x="740" y="72" class="terminal text-muted">Jun</text>
<text x="754" y="72" class="terminal text-muted">Aug</text>
<text x="768" y="72" class="terminal text-muted">Sep</text>
<rect class="box anim-box" x="40" y="80" width="10" height="10" fill="#006d32" style="animation-delay: 0.0s" />
<rect class="box anim-box" x="40" y="94" width="10" height="10" fill="#161b22" style="animation-delay: 0.02s" />
<rect class="box anim-box" x="40" y="108" width="10" height="10" fill="#161b22" style="animation-delay: 0.04s" />
<rect class="box anim-box" x="40" y="122" width="10" height="10" fill="#006d32" style="animation-delay: 0.06s" />
<rect class="box anim-box" x="40" y="136" width="10" height="10" fill="#161b22" style="animation-delay: 0.08s" />
<rect class="box anim-box" x="40" y="150" width="10" height="10" fill="#161b22" style="animation-delay: 0.1s" />
<rect class="box anim-box" x="40" y="164" width="10" height="10" fill="#0e4429" style="animation-delay: 0.12s" />
<rect class="box anim-box" x="54" y="80" width="10" height="10" fill="#161b22" style="animation-delay: 0.02s" />
<rect class="box anim-box" x="54" y="94" width="10" height="10" fill="#0e4429" style="animation-delay: 0.04s" />
<rect class="box anim-box" x="54" y="108" width="10" height="10" fill="#26a641" style="animation-delay: 0.06s" />
<rect class="box anim-box" x="54" y="122" width="10" height="10" fill="#161b22" style="animation-delay: 0.08s" />
<rect class="box anim-box" x="54" y="136" width="10" height="10" fill="#0e4429" style="animation-delay: 0.1s" />
<rect class="box anim-box" x="54" y="150" width="10" height="10" fill="#006d32" style="animation-delay: 0.12s" />
<rect class="box anim-box" x="54" y="164" width="10" height="10" fill="#161b22" style="animation-delay: 0.14s" />
<rect class="box anim-box" x="68" y="80" width="10" height="10" fill="#161b22" style="animation-delay: 0.04s" />
<rect class="box anim-box" x="68" y="94" width="10" height="10" fill="#161b22" style="animation-delay: 0.06s" />
<rect class="box anim-box" x="68" y="108" width="10" height="10" fill="#161b22" style="animation-delay: 0.08s" />
<rect class="box anim-box" x="68" y="122" width="10" height="10" fill="#161b22" style="animation-delay: 0.1s" />
<rect class="box anim-box" x="68" y="136" width="10" height="10" fill="#161b22" style="animation-delay: 0.12s" />
<rect class="box anim-box" x="68" y="150" width="10" height="10" fill="#161b22" style="animation-delay: 0.14s" />
<rect class="box anim-box" x="68" y="164" width="10" height="10" fill="#161b22" style="animation-delay: 0.16s" />
<rect class="box anim-box" x="82" y="80" width="10" height="10" fill="#39d353" style="animation-delay: 0.06s" />
<rect class="box anim-box" x="82" y="94" width="10" height="10" fill="#0e4429" style="animation-delay: 0.08s" />
<rect class="box anim-box" x="82" y="108" width="10" height="10" fill="#0e4429" style="animation-delay: 0.1s" />
<rect class="box anim-box" x="82" y="122" width="10" height="10" fill="#161b22" style="animation-delay: 0.12s" />
<rect class="box anim-box" x="82" y="136" width="10" height="10" fill="#26a641" style="animation-delay: 0.14s" />
<rect class="box anim-box" x="82" y="150" width="10" height="10" fill="#26a641" style="animation-delay: 0.16s" />
<rect class="box anim-box" x="82" y="164" width="10" height="10" fill="#161b22" style="animation-delay: 0.18s" />
<rect class="box anim-box" x="96" y="80" width="10" height="10" fill="#0e4429" style="animation-delay: 0.08s" />
<rect class="box anim-box" x="96" y="94" width="10" height="10" fill="#161b22" style="animation-delay: 0.1s" />
<rect class="box anim-box" x="96" y="108" width="10" height="10" fill="#161b22" style="animation-delay: 0.12s" />
<rect class="box anim-box" x="96" y="122" width="10" height="10" fill="#161b22" style="animation-delay: 0.14s" />
<rect class="box anim-box" x="96" y="136" width="10" height="10" fill="#0e4429" style="animation-delay: 0.16s" />
<rect class="box anim-box" x="96" y="150" width="10" height="10" fill="#0e4429" style="animation-delay: 0.18s" />
<rect class="box anim-box" x="96" y="164" width="10" height="10" fill="#161b22" style="animation-delay: 0.2s" />
<rect class="box anim-box" x="110" y="80" width="10" height="10" fill="#161b22" style="animation-delay: 0.1s" />
<rect class="box anim-box" x="110" y="94" width="10" height="10" fill="#161b22" style="animation-delay: 0.12s" />
<rect class="box anim-box" x="110" y="108" width="10" height="10" fill="#161b22" style="animation-delay: 0.14s" />
<rect class="box anim-box" x="110" y="122" width="10" height="10" fill="#161b22" style="animation-delay: 0.16s" />
<rect class="box anim-box" x="110" y="136" width="10" height="10" fill="#161b22" style="animation-delay: 0.18s" />
<rect class="box anim-box" x="110" y="150" width="10" height="10" fill="#161b22" style="animation-delay: 0.2s" />
<rect class="box anim-box" x="110" y="164" width="10" height="10" fill="#161b22" style="animation-delay: 0.22s" />
<rect class="box anim-box" x="124" y="80" width="10" height="10" fill="#0e4429" style="animation-delay: 0.12s" />
<rect class="box anim-box" x="124" y="94" width="10" height="10" fill="#161b22" style="animation-delay: 0.14s" />
<rect class="box anim-box" x="124" y="108" width="10" height="10" fill="#161b22" style="animation-delay: 0.16s" />
<rect class="box anim-box" x="124" y="122" width="10" height="10" fill="#161b22" style="animation-delay: 0.18s" />
<rect class="box anim-box" x="124" y="136" width="10" height="10" fill="#0e4429" style="animation-delay: 0.2s" />
<rect class="box anim-box" x="124" y="150" width="10" height="10" fill="#0e4429" style="animation-delay: 0.22s" />
<rect class="box anim-box" x="124" y="164" width="10" height="10" fill="#161b22" style="animation-delay: 0.24s" />
<rect class="box anim-box" x="138" y="80" width="10" height="10" fill="#161b22" style="animation-delay: 0.14s" />
<rect class="box anim-box" x="138" y="94" width="10" height="10" fill="#26a641" style="animation-delay: 0.16s" />
<rect class="box anim-box" x="138" y="108" width="10" height="10" fill="#0e4429" style="animation-delay: 0.18s" />
<rect class="box anim-box" x="138" y="122" width="10" height="10" fill="#39d353" style="animation-delay: 0.2s" />
<rect class="box anim-box" x="138" y="136" width="10" height="10" fill="#006d32" style="animation-delay: 0.22s" />
<rect class="box anim-box" x="138" y="150" width="10" height="10" fill="#161b22" style="animation-delay: 0.24s" />
<rect class="box anim-box" x="138" y="164" width="10" height="10" fill="#161b22" style="animation-delay: 0.26s" />
<rect class="box anim-box" x="152" y="80" width="10" height="10" fill="#161b22" style="animation-delay: 0.16s" />
<rect class="box anim-box" x="152" y="94" width="10" height="10" fill="#161b22" style="animation-delay: 0.18s" />
<rect class="box anim-box" x="152" y="108" width="10" height="10" fill="#161b22" style="animation-delay: 0.2s" />
<rect class="box anim-box" x="152" y="122" width="10" height="10" fill="#161b22" style="animation-delay: 0.22s" />
<rect class="box anim-box" x="152" y="136" width="10" height="10" fill="#161b22" style="animation-delay: 0.24s" />
<rect class="box anim-box" x="152" y="150" width="10" height="10" fill="#006d32" style="animation-delay: 0.26s" />
<rect class="box anim-box" x="152" y="164" width="10" height="10" fill="#161b22" style="animation-delay: 0.28s" />
<rect class="box anim-box" x="166" y="80" width="10" height="10" fill="#0e4429" style="animation-delay: 0.18s" />
<rect class="box anim-box" x="166" y="94" width="10" height="10" fill="#0e4429" style="animation-delay: 0.2s" />
<rect class="box anim-box" x="166" y="108" width="10" height="10" fill="#0e4429" style="animation-delay: 0.22s" />
<rect class="box anim-box" x="166" y="122" width="10" height="10" fill="#0e4429" style="animation-delay: 0.24s" />
<rect class="box anim-box" x="166" y="136" width="10" height="10" fill="#0e4429" style="animation-delay: 0.26s" />
<rect class="box anim-box" x="166" y="150" width="10" height="10" fill="#0e4429" style="animation-delay: 0.28s" />
<rect class="box anim-box" x="166" y="164" width="10" height="10" fill="#161b22" style="animation-delay: 0.3s" />
<rect class="box anim-box" x="180" y="80" width="10" height="10" fill="#006d32" style="animation-delay: 0.2s" />
<rect class="box anim-box" x="180" y="94" width="10" height="10" fill="#161b22" style="animation-delay: 0.22s" />
<rect class="box anim-box" x="180" y="108" width="10" height="10" fill="#0e4429" style="animation-delay: 0.24s" />
<rect class="box anim-box" x="180" y="122" width="10" height="10" fill="#26a641" style="animation-delay: 0.26s" />
<rect class="box anim-box" x="180" y="136" width="10" height="10" fill="#0e4429" style="animation-delay: 0.28s" />
<rect class="box anim-box" x="180" y="150" width="10" height="10" fill="#26a641" style="animation-delay: 0.3s" />
<rect class="box anim-box" x="180" y="164" width="10" height="10" fill="#0e4429" style="animation-delay: 0.32s" />
<rect class="box anim-box" x="194" y="80" width="10" height="10" fill="#0e4429" style="animation-delay: 0.22s" />
<rect class="box anim-box" x="194" y="94" width="10" height="10" fill="#161b22" style="animation-delay: 0.24s" />
<rect class="box anim-box" x="194" y="108" width="10" height="10" fill="#0e4429" style="animation-delay: 0.26s" />
<rect class="box anim-box" x="194" y="122" width="10" height="10" fill="#161b22" style="animation-delay: 0.28s" />
<rect class="box anim-box" x="194" y="136" width="10" height="10" fill="#006d32" style="animation-delay: 0.3s" />
<rect class="box anim-box" x="194" y="150" width="10" height="10" fill="#0e4429" style="animation-delay: 0.32s" />
<rect class="box anim-box" x="194" y="164" width="10" height="10" fill="#161b22" style="animation-delay: 0.34s" />
<rect class="box anim-box" x="208" y="80" width="10" height="10" fill="#161b22" style="animation-delay: 0.24s" />
<rect class="box anim-box" x="208" y="94" width="10" height="10" fill="#161b22" style="animation-delay: 0.26s" />
<rect class="box anim-box" x="208" y="108" width="10" height="10" fill="#161b22" style="animation-delay: 0.28s" />
<rect class="box anim-box" x="208" y="122" width="10" height="10" fill="#161b22" style="animation-delay: 0.3s" />
<rect class="box anim-box" x="208" y="136" width="10" height="10" fill="#161b22" style="animation-delay: 0.32s" />
<rect class="box anim-box" x="208" y="150" width="10" height="10" fill="#161b22" style="animation-delay: 0.34s" />
<rect class="box anim-box" x="208" y="164" width="10" height="10" fill="#0e4429" style="animation-delay: 0.36s" />
<rect class="box anim-box" x="222" y="80" width="10" height="10" fill="#161b22" style="animation-delay: 0.26s" />
<rect class="box anim-box" x="222" y="94" width="10" height="10" fill="#161b22" style="animation-delay: 0.28s" />
<rect class="box anim-box" x="222" y="108" width="10" height="10" fill="#161b22" style="animation-delay: 0.3s" />
<rect class="box anim-box" x="222" y="122" width="10" height="10" fill="#161b22" style="animation-delay: 0.32s" />
<rect class="box anim-box" x="222" y="136" width="10" height="10" fill="#26a641" style="animation-delay: 0.34s" />
<rect class="box anim-box" x="222" y="150" width="10" height="10" fill="#0e4429" style="animation-delay: 0.36s" />
<rect class="box anim-box" x="222" y="164" width="10" height="10" fill="#0e4429" style="animation-delay: 0.38s" />
<rect class="box anim-box" x="236" y="80" width="10" height="10" fill="#0e4429" style="animation-delay: 0.28s" />
<rect class="box anim-box" x="236" y="94" width="10" height="10" fill="#161b22" style="animation-delay: 0.3s" />
<rect class="box anim-box" x="236" y="108" width="10" height="10" fill="#006d32" style="animation-delay: 0.32s" />
<rect class="box anim-box" x="236" y="122" width="10" height="10" fill="#0e4429" style="animation-delay: 0.34s" />
<rect class="box anim-box" x="236" y="136" width="10" height="10" fill="#0e4429" style="animation-delay: 0.36s" />
<rect class="box anim-box" x="236" y="150" width="10" height="10" fill="#006d32" style="animation-delay: 0.38s" />
<rect class="box anim-box" x="236" y="164" width="10" height="10" fill="#161b22" style="animation-delay: 0.4s" />
<rect class="box anim-box" x="250" y="80" width="10" height="10" fill="#39d353" style="animation-delay: 0.3s" />
<rect class="box anim-box" x="250" y="94" width="10" height="10" fill="#006d32" style="animation-delay: 0.32s" />
<rect class="box anim-box" x="250" y="108" width="10" height="10" fill="#161b22" style="animation-delay: 0.34s" />
<rect class="box anim-box" x="250" y="122" width="10" height="10" fill="#161b22" style="animation-delay: 0.36s" />
<rect class="box anim-box" x="250" y="136" width="10" height="10" fill="#161b22" style="animation-delay: 0.38s" />
<rect class="box anim-box" x="250" y="150" width="10" height="10" fill="#161b22" style="animation-delay: 0.4s" />
<rect class="box anim-box" x="250" y="164" width="10" height="10" fill="#161b22" style="animation-delay: 0.42s" />
<rect class="box anim-box" x="264" y="80" width="10" height="10" fill="#161b22" style="animation-delay: 0.32s" />
<rect class="box anim-box" x="264" y="94" width="10" height="10" fill="#161b22" style="animation-delay: 0.34s" />
<rect class="box anim-box" x="264" y="108" width="10" height="10" fill="#0e4429" style="animation-delay: 0.36s" />
<rect class="box anim-box" x="264" y="122" width="10" height="10" fill="#161b22" style="animation-delay: 0.38s" />
<rect class="box anim-box" x="264" y="136" width="10" height="10" fill="#26a641" style="animation-delay: 0.4s" />
<rect class="box anim-box" x="264" y="150" width="10" height="10" fill="#006d32" style="animation-delay: 0.42s" />
<rect class="box anim-box" x="264" y="164" width="10" height="10" fill="#0e4429" style="animation-delay: 0.44s" />
<rect class="box anim-box" x="278" y="80" width="10" height="10" fill="#0e4429" style="animation-delay: 0.34s" />
<rect class="box anim-box" x="278" y="94" width="10" height="10" fill="#0e4429" style="animation-delay: 0.36s" />
<rect class="box anim-box" x="278" y="108" width="10" height="10" fill="#0e4429" style="animation-delay: 0.38s" />
<rect class="box anim-box" x="278" y="122" width="10" height="10" fill="#161b22" style="animation-delay: 0.4s" />
<rect class="box anim-box" x="278" y="136" width="10" height="10" fill="#0e4429" style="animation-delay: 0.42s" />
<rect class="box anim-box" x="278" y="150" width="10" height="10" fill="#161b22" style="animation-delay: 0.44s" />
<rect class="box anim-box" x="278" y="164" width="10" height="10" fill="#0e4429" style="animation-delay: 0.46s" />
<rect class="box anim-box" x="292" y="80" width="10" height="10" fill="#26a641" style="animation-delay: 0.36s" />
<rect class="box anim-box" x="292" y="94" width="10" height="10" fill="#0e4429" style="animation-delay: 0.38s" />
<rect class="box anim-box" x="292" y="108" width="10" height="10" fill="#26a641" style="animation-delay: 0.4s" />
<rect class="box anim-box" x="292" y="122" width="10" height="10" fill="#0e4429" style="animation-delay: 0.42s" />
<rect class="box anim-box" x="292" y="136" width="10" height="10" fill="#161b22" style="animation-delay: 0.44s" />
<rect class="box anim-box" x="292" y="150" width="10" height="10" fill="#006d32" style="animation-delay: 0.46s" />
<rect class="box anim-box" x="292" y="164" width="10" height="10" fill="#161b22" style="animation-delay: 0.48s" />
<rect class="box anim-box" x="306" y="80" width="10" height="10" fill="#006d32" style="animation-delay: 0.38s" />
<rect class="box anim-box" x="306" y="94" width="10" height="10" fill="#161b22" style="animation-delay: 0.4s" />
<rect class="box anim-box" x="306" y="108" width="10" height="10" fill="#161b22" style="animation-delay: 0.42s" />
<rect class="box anim-box" x="306" y="122" width="10" height="10" fill="#161b22" style="animation-delay: 0.44s" />
<rect class="box anim-box" x="306" y="136" width="10" height="10" fill="#0e4429" style="animation-delay: 0.46s" />
<rect class="box anim-box" x="306" y="150" width="10" height="10" fill="#26a641" style="animation-delay: 0.48s" />
<rect class="box anim-box" x="306" y="164" width="10" height="10" fill="#161b22" style="animation-delay: 0.5s" />
<rect class="box anim-box" x="320" y="80" width="10" height="10" fill="#0e4429" style="animation-delay: 0.4s" />
<rect class="box anim-box" x="320" y="94" width="10" height="10" fill="#161b22" style="animation-delay: 0.42s" />
<rect class="box anim-box" x="320" y="108" width="10" height="10" fill="#0e4429" style="animation-delay: 0.44s" />
<rect class="box anim-box" x="320" y="122" width="10" height="10" fill="#161b22" style="animation-delay: 0.46s" />
<rect class="box anim-box" x="320" y="136" width="10" height="10" fill="#161b22" style="animation-delay: 0.48s" />
<rect class="box anim-box" x="320" y="150" width="10" height="10" fill="#161b22" style="animation-delay: 0.5s" />
<rect class="box anim-box" x="320" y="164" width="10" height="10" fill="#161b22" style="animation-delay: 0.52s" />
<rect class="box anim-box" x="334" y="80" width="10" height="10" fill="#006d32" style="animation-delay: 0.42s" />
<rect class="box anim-box" x="334" y="94" width="10" height="10" fill="#006d32" style="animation-delay: 0.44s" />
<rect class="box anim-box" x="334" y="108" width="10" height="10" fill="#26a641" style="animation-delay: 0.46s" />
<rect class="box anim-box" x="334" y="122" width="10" height="10" fill="#006d32" style="animation-delay: 0.48s" />
<rect class="box anim-box" x="334" y="136" width="10" height="10" fill="#0e4429" style="animation-delay: 0.5s" />
<rect class="box anim-box" x="334" y="150" width="10" height="10" fill="#161b22" style="animation-delay: 0.52s" />
<rect class="box anim-box" x="334" y="164" width="10" height="10" fill="#006d32" style="animation-delay: 0.54s" />
<rect class="box anim-box" x="348" y="80" width="10" height="10" fill="#0e4429" style="animation-delay: 0.44s" />
<rect class="box anim-box" x="348" y="94" width="10" height="10" fill="#0e4429" style="animation-delay: 0.46s" />
<rect class="box anim-box" x="348" y="108" width="10" height="10" fill="#39d353" style="animation-delay: 0.48s" />
<rect class="box anim-box" x="348" y="122" width="10" height="10" fill="#0e4429" style="animation-delay: 0.5s" />
<rect class="box anim-box" x="348" y="136" width="10" height="10" fill="#0e4429" style="animation-delay: 0.52s" />
<rect class="box anim-box" x="348" y="150" width="10" height="10" fill="#161b22" style="animation-delay: 0.54s" />
<rect class="box anim-box" x="348" y="164" width="10" height="10" fill="#161b22" style="animation-delay: 0.56s" />
<rect class="box anim-box" x="362" y="80" width="10" height="10" fill="#161b22" style="animation-delay: 0.46s" />
<rect class="box anim-box" x="362" y="94" width="10" height="10" fill="#0e4429" style="animation-delay: 0.48s" />
<rect class="box anim-box" x="362" y="108" width="10" height="10" fill="#006d32" style="animation-delay: 0.5s" />
<rect class="box anim-box" x="362" y="122" width="10" height="10" fill="#0e4429" style="animation-delay: 0.52s" />
<rect class="box anim-box" x="362" y="136" width="10" height="10" fill="#161b22" style="animation-delay: 0.54s" />
<rect class="box anim-box" x="362" y="150" width="10" height="10" fill="#0e4429" style="animation-delay: 0.56s" />
<rect class="box anim-box" x="362" y="164" width="10" height="10" fill="#0e4429" style="animation-delay: 0.58s" />
<rect class="box anim-box" x="376" y="80" width="10" height="10" fill="#006d32" style="animation-delay: 0.48s" />
<rect class="box anim-box" x="376" y="94" width="10" height="10" fill="#39d353" style="animation-delay: 0.5s" />
<rect class="box anim-box" x="376" y="108" width="10" height="10" fill="#161b22" style="animation-delay: 0.52s" />
<rect class="box anim-box" x="376" y="122" width="10" height="10" fill="#006d32" style="animation-delay: 0.54s" />
<rect class="box anim-box" x="376" y="136" width="10" height="10" fill="#161b22" style="animation-delay: 0.56s" />
<rect class="box anim-box" x="376" y="150" width="10" height="10" fill="#0e4429" style="animation-delay: 0.58s" />
<rect class="box anim-box" x="376" y="164" width="10" height="10" fill="#006d32" style="animation-delay: 0.6s" />
<rect class="box anim-box" x="390" y="80" width="10" height="10" fill="#161b22" style="animation-delay: 0.5s" />
<rect class="box anim-box" x="390" y="94" width="10" height="10" fill="#0e4429" style="animation-delay: 0.52s" />
<rect class="box anim-box" x="390" y="108" width="10" height="10" fill="#161b22" style="animation-delay: 0.54s" />
<rect class="box anim-box" x="390" y="122" width="10" height="10" fill="#26a641" style="animation-delay: 0.56s" />
<rect class="box anim-box" x="390" y="136" width="10" height="10" fill="#26a641" style="animation-delay: 0.58s" />
<rect class="box anim-box" x="390" y="150" width="10" height="10" fill="#161b22" style="animation-delay: 0.6s" />
<rect class="box anim-box" x="390" y="164" width="10" height="10" fill="#006d32" style="animation-delay: 0.62s" />
<rect class="box anim-box" x="404" y="80" width="10" height="10" fill="#161b22" style="animation-delay: 0.52s" />
<rect class="box anim-box" x="404" y="94" width="10" height="10" fill="#0e4429" style="animation-delay: 0.54s" />
<rect class="box anim-box" x="404" y="108" width="10" height="10" fill="#006d32" style="animation-delay: 0.56s" />
<rect class="box anim-box" x="404" y="122" width="10" height="10" fill="#161b22" style="animation-delay: 0.58s" />
<rect class="box anim-box" x="404" y="136" width="10" height="10" fill="#0e4429" style="animation-delay: 0.6s" />
<rect class="box anim-box" x="404" y="150" width="10" height="10" fill="#161b22" style="animation-delay: 0.62s" />
<rect class="box anim-box" x="404" y="164" width="10" height="10" fill="#0e4429" style="animation-delay: 0.64s" />
<rect class="box anim-box" x="418" y="80" width="10" height="10" fill="#161b22" style="animation-delay: 0.54s" />
<rect class="box anim-box" x="418" y="94" width="10" height="10" fill="#161b22" style="animation-delay: 0.56s" />
<rect class="box anim-box" x="418" y="108" width="10" height="10" fill="#006d32" style="animation-delay: 0.58s" />
<rect class="box anim-box" x="418" y="122" width="10" height="10" fill="#161b22" style="animation-delay: 0.6s" />
<rect class="box anim-box" x="418" y="136" width="10" height="10" fill="#0e4429" style="animation-delay: 0.62s" />
<rect class="box anim-box" x="418" y="150" width="10" height="10" fill="#161b22" style="animation-delay: 0.64s" />
<rect class="box anim-box" x="418" y="164" width="10" height="10" fill="#006d32" style="animation-delay: 0.66s" />
<rect class="box anim-box" x="432" y="80" width="10" height="10" fill="#161b22" style="animation-delay: 0.56s" />
<rect class="box anim-box" x="432" y="94" width="10" height="10" fill="#161b22" style="animation-delay: 0.58s" />
<rect class="box anim-box" x="432" y="108" width="10" height="10" fill="#161b22" style="animation-delay: 0.6s" />
<rect class="box anim-box" x="432" y="122" width="10" height="10" fill="#0e4429" style="animation-delay: 0.62s" />
<rect class="box anim-box" x="432" y="136" width="10" height="10" fill="#0e4429" style="animation-delay: 0.64s" />
<rect class="box anim-box" x="432" y="150" width="10" height="10" fill="#0e4429" style="animation-delay: 0.66s" />
<rect class="box anim-box" x="432" y="164" width="10" height="10" fill="#006d32" style="animation-delay: 0.68s" />
<rect class="box anim-box" x="446" y="80" width="10" height="10" fill="#26a641" style="animation-delay: 0.58s" />
<rect class="box anim-box" x="446" y="94" width="10" height="10" fill="#006d32" style="animation-delay: 0.6s" />
<rect class="box anim-box" x="446" y="108" width="10" height="10" fill="#161b22" style="animation-delay: 0.62s" />
<rect class="box anim-box" x="446" y="122" width="10" height="10" fill="#26a641" style="animation-delay: 0.64s" />
<rect class="box anim-box" x="446" y="136" width="10" height="10" fill="#006d32" style="animation-delay: 0.66s" />
<rect class="box anim-box" x="446" y="150" width="10" height="10" fill="#0e4429" style="animation-delay: 0.68s" />
<rect class="box anim-box" x="446" y="164" width="10" height="10" fill="#0e4429" style="animation-delay: 0.7000000000000001s" />
<rect class="box anim-box" x="460" y="80" width="10" height="10" fill="#0e4429" style="animation-delay: 0.6s" />
<rect class="box anim-box" x="460" y="94" width="10" height="10" fill="#161b22" style="animation-delay: 0.62s" />
<rect class="box anim-box" x="460" y="108" width="10" height="10" fill="#161b22" style="animation-delay: 0.64s" />
<rect class="box anim-box" x="460" y="122" width="10" height="10" fill="#161b22" style="animation-delay: 0.66s" />
<rect class="box anim-box" x="460" y="136" width="10" height="10" fill="#161b22" style="animation-delay: 0.68s" />
<rect class="box anim-box" x="460" y="150" width="10" height="10" fill="#161b22" style="animation-delay: 0.7000000000000001s" />
<rect class="box anim-box" x="460" y="164" width="10" height="10" fill="#161b22" style="animation-delay: 0.72s" />
<rect class="box anim-box" x="474" y="80" width="10" height="10" fill="#161b22" style="animation-delay: 0.62s" />
<rect class="box anim-box" x="474" y="94" width="10" height="10" fill="#006d32" style="animation-delay: 0.64s" />
<rect class="box anim-box" x="474" y="108" width="10" height="10" fill="#006d32" style="animation-delay: 0.66s" />
<rect class="box anim-box" x="474" y="122" width="10" height="10" fill="#006d32" style="animation-delay: 0.68s" />
<rect class="box anim-box" x="474" y="136" width="10" height="10" fill="#26a641" style="animation-delay: 0.7000000000000001s" />
<rect class="box anim-box" x="474" y="150" width="10" height="10" fill="#161b22" style="animation-delay: 0.72s" />
<rect class="box anim-box" x="474" y="164" width="10" height="10" fill="#0e4429" style="animation-delay: 0.74s" />
<rect class="box anim-box" x="488" y="80" width="10" height="10" fill="#161b22" style="animation-delay: 0.64s" />
<rect class="box anim-box" x="488" y="94" width="10" height="10" fill="#0e4429" style="animation-delay: 0.66s" />
<rect class="box anim-box" x="488" y="108" width="10" height="10" fill="#0e4429" style="animation-delay: 0.68s" />
<rect class="box anim-box" x="488" y="122" width="10" height="10" fill="#161b22" style="animation-delay: 0.7000000000000001s" />
<rect class="box anim-box" x="488" y="136" width="10" height="10" fill="#39d353" style="animation-delay: 0.72s" />
<rect class="box anim-box" x="488" y="150" width="10" height="10" fill="#161b22" style="animation-delay: 0.74s" />
<rect class="box anim-box" x="488" y="164" width="10" height="10" fill="#006d32" style="animation-delay: 0.76s" />
<rect class="box anim-box" x="502" y="80" width="10" height="10" fill="#006d32" style="animation-delay: 0.66s" />
<rect class="box anim-box" x="502" y="94" width="10" height="10" fill="#26a641" style="animation-delay: 0.68s" />
<rect class="box anim-box" x="502" y="108" width="10" height="10" fill="#0e4429" style="animation-delay: 0.7000000000000001s" />
<rect class="box anim-box" x="502" y="122" width="10" height="10" fill="#161b22" style="animation-delay: 0.72s" />
<rect class="box anim-box" x="502" y="136" width="10" height="10" fill="#0e4429" style="animation-delay: 0.74s" />
<rect class="box anim-box" x="502" y="150" width="10" height="10" fill="#26a641" style="animation-delay: 0.76s" />
<rect class="box anim-box" x="502" y="164" width="10" height="10" fill="#161b22" style="animation-delay: 0.78s" />
<rect class="box anim-box" x="516" y="80" width="10" height="10" fill="#161b22" style="animation-delay: 0.68s" />
<rect class="box anim-box" x="516" y="94" width="10" height="10" fill="#161b22" style="animation-delay: 0.7000000000000001s" />
<rect class="box anim-box" x="516" y="108" width="10" height="10" fill="#0e4429" style="animation-delay: 0.72s" />
<rect class="box anim-box" x="516" y="122" width="10" height="10" fill="#161b22" style="animation-delay: 0.74s" />
<rect class="box anim-box" x="516" y="136" width="10" height="10" fill="#161b22" style="animation-delay: 0.76s" />
<rect class="box anim-box" x="516" y="150" width="10" height="10" fill="#26a641" style="animation-delay: 0.78s" />
<rect class="box anim-box" x="516" y="164" width="10" height="10" fill="#0e4429" style="animation-delay: 0.8s" />
<rect class="box anim-box" x="530" y="80" width="10" height="10" fill="#006d32" style="animation-delay: 0.7000000000000001s" />
<rect class="box anim-box" x="530" y="94" width="10" height="10" fill="#161b22" style="animation-delay: 0.72s" />
<rect class="box anim-box" x="530" y="108" width="10" height="10" fill="#161b22" style="animation-delay: 0.74s" />
<rect class="box anim-box" x="530" y="122" width="10" height="10" fill="#161b22" style="animation-delay: 0.76s" />
<rect class="box anim-box" x="530" y="136" width="10" height="10" fill="#161b22" style="animation-delay: 0.78s" />
<rect class="box anim-box" x="530" y="150" width="10" height="10" fill="#161b22" style="animation-delay: 0.8s" />
<rect class="box anim-box" x="530" y="164" width="10" height="10" fill="#161b22" style="animation-delay: 0.8200000000000001s" />
<rect class="box anim-box" x="544" y="80" width="10" height="10" fill="#161b22" style="animation-delay: 0.72s" />
<rect class="box anim-box" x="544" y="94" width="10" height="10" fill="#0e4429" style="animation-delay: 0.74s" />
<rect class="box anim-box" x="544" y="108" width="10" height="10" fill="#0e4429" style="animation-delay: 0.76s" />
<rect class="box anim-box" x="544" y="122" width="10" height="10" fill="#0e4429" style="animation-delay: 0.78s" />
<rect class="box anim-box" x="544" y="136" width="10" height="10" fill="#0e4429" style="animation-delay: 0.8s" />
<rect class="box anim-box" x="544" y="150" width="10" height="10" fill="#161b22" style="animation-delay: 0.8200000000000001s" />
<rect class="box anim-box" x="544" y="164" width="10" height="10" fill="#006d32" style="animation-delay: 0.84s" />
<rect class="box anim-box" x="558" y="80" width="10" height="10" fill="#26a641" style="animation-delay: 0.74s" />
<rect class="box anim-box" x="558" y="94" width="10" height="10" fill="#006d32" style="animation-delay: 0.76s" />
<rect class="box anim-box" x="558" y="108" width="10" height="10" fill="#006d32" style="animation-delay: 0.78s" />
<rect class="box anim-box" x="558" y="122" width="10" height="10" fill="#006d32" style="animation-delay: 0.8s" />
<rect class="box anim-box" x="558" y="136" width="10" height="10" fill="#161b22" style="animation-delay: 0.8200000000000001s" />
<rect class="box anim-box" x="558" y="150" width="10" height="10" fill="#161b22" style="animation-delay: 0.84s" />
<rect class="box anim-box" x="558" y="164" width="10" height="10" fill="#161b22" style="animation-delay: 0.86s" />
<rect class="box anim-box" x="572" y="80" width="10" height="10" fill="#161b22" style="animation-delay: 0.76s" />
<rect class="box anim-box" x="572" y="94" width="10" height="10" fill="#161b22" style="animation-delay: 0.78s" />
<rect class="box anim-box" x="572" y="108" width="10" height="10" fill="#161b22" style="animation-delay: 0.8s" />
<rect class="box anim-box" x="572" y="122" width="10" height="10" fill="#0e4429" style="animation-delay: 0.8200000000000001s" />
<rect class="box anim-box" x="572" y="136" width="10" height="10" fill="#0e4429" style="animation-delay: 0.84s" />
<rect class="box anim-box" x="572" y="150" width="10" height="10" fill="#006d32" style="animation-delay: 0.86s" />
<rect class="box anim-box" x="572" y="164" width="10" height="10" fill="#006d32" style="animation-delay: 0.88s" />
<rect class="box anim-box" x="586" y="80" width="10" height="10" fill="#0e4429" style="animation-delay: 0.78s" />
<rect class="box anim-box" x="586" y="94" width="10" height="10" fill="#161b22" style="animation-delay: 0.8s" />
<rect class="box anim-box" x="586" y="108" width="10" height="10" fill="#161b22" style="animation-delay: 0.8200000000000001s" />
<rect class="box anim-box" x="586" y="122" width="10" height="10" fill="#0e4429" style="animation-delay: 0.84s" />
<rect class="box anim-box" x="586" y="136" width="10" height="10" fill="#0e4429" style="animation-delay: 0.86s" />
<rect class="box anim-box" x="586" y="150" width="10" height="10" fill="#0e4429" style="animation-delay: 0.88s" />
<rect class="box anim-box" x="586" y="164" width="10" height="10" fill="#006d32" style="animation-delay: 0.9s" />
<rect class="box anim-box" x="600" y="80" width="10" height="10" fill="#26a641" style="animation-delay: 0.8s" />
<rect class="box anim-box" x="600" y="94" width="10" height="10" fill="#0e4429" style="animation-delay: 0.8200000000000001s" />
<rect class="box anim-box" x="600" y="108" width="10" height="10" fill="#0e4429" style="animation-delay: 0.84s" />
<rect class="box anim-box" x="600" y="122" width="10" height="10" fill="#006d32" style="animation-delay: 0.86s" />
<rect class="box anim-box" x="600" y="136" width="10" height="10" fill="#006d32" style="animation-delay: 0.88s" />
<rect class="box anim-box" x="600" y="150" width="10" height="10" fill="#0e4429" style="animation-delay: 0.9s" />
<rect class="box anim-box" x="600" y="164" width="10" height="10" fill="#0e4429" style="animation-delay: 0.92s" />
<rect class="box anim-box" x="614" y="80" width="10" height="10" fill="#0e4429" style="animation-delay: 0.8200000000000001s" />
<rect class="box anim-box" x="614" y="94" width="10" height="10" fill="#006d32" style="animation-delay: 0.84s" />
<rect class="box anim-box" x="614" y="108" width="10" height="10" fill="#161b22" style="animation-delay: 0.86s" />
<rect class="box anim-box" x="614" y="122" width="10" height="10" fill="#161b22" style="animation-delay: 0.88s" />
<rect class="box anim-box" x="614" y="136" width="10" height="10" fill="#0e4429" style="animation-delay: 0.9s" />
<rect class="box anim-box" x="614" y="150" width="10" height="10" fill="#161b22" style="animation-delay: 0.92s" />
<rect class="box anim-box" x="614" y="164" width="10" height="10" fill="#161b22" style="animation-delay: 0.9400000000000001s" />
<rect class="box anim-box" x="628" y="80" width="10" height="10" fill="#0e4429" style="animation-delay: 0.84s" />
<rect class="box anim-box" x="628" y="94" width="10" height="10" fill="#006d32" style="animation-delay: 0.86s" />
<rect class="box anim-box" x="628" y="108" width="10" height="10" fill="#0e4429" style="animation-delay: 0.88s" />
<rect class="box anim-box" x="628" y="122" width="10" height="10" fill="#161b22" style="animation-delay: 0.9s" />
<rect class="box anim-box" x="628" y="136" width="10" height="10" fill="#0e4429" style="animation-delay: 0.92s" />
<rect class="box anim-box" x="628" y="150" width="10" height="10" fill="#161b22" style="animation-delay: 0.9400000000000001s" />
<rect class="box anim-box" x="628" y="164" width="10" height="10" fill="#161b22" style="animation-delay: 0.96s" />
<rect class="box anim-box" x="642" y="80" width="10" height="10" fill="#161b22" style="animation-delay: 0.86s" />
<rect class="box anim-box" x="642" y="94" width="10" height="10" fill="#161b22" style="animation-delay: 0.88s" />
<rect class="box anim-box" x="642" y="108" width="10" height="10" fill="#0e4429" style="animation-delay: 0.9s" />
<rect class="box anim-box" x="642" y="122" width="10" height="10" fill="#0e4429" style="animation-delay: 0.92s" />
<rect class="box anim-box" x="642" y="136" width="10" height="10" fill="#006d32" style="animation-delay: 0.9400000000000001s" />
<rect class="box anim-box" x="642" y="150" width="10" height="10" fill="#006d32" style="animation-delay: 0.96s" />
<rect class="box anim-box" x="642" y="164" width="10" height="10" fill="#0e4429" style="animation-delay: 0.98s" />
<rect class="box anim-box" x="656" y="80" width="10" height="10" fill="#26a641" style="animation-delay: 0.88s" />
<rect class="box anim-box" x="656" y="94" width="10" height="10" fill="#0e4429" style="animation-delay: 0.9s" />
<rect class="box anim-box" x="656" y="108" width="10" height="10" fill="#161b22" style="animation-delay: 0.92s" />
<rect class="box anim-box" x="656" y="122" width="10" height="10" fill="#39d353" style="animation-delay: 0.9400000000000001s" />
<rect class="box anim-box" x="656" y="136" width="10" height="10" fill="#0e4429" style="animation-delay: 0.96s" />
<rect class="box anim-box" x="656" y="150" width="10" height="10" fill="#26a641" style="animation-delay: 0.98s" />
<rect class="box anim-box" x="656" y="164" width="10" height="10" fill="#0e4429" style="animation-delay: 1.0s" />
<rect class="box anim-box" x="670" y="80" width="10" height="10" fill="#161b22" style="animation-delay: 0.9s" />
<rect class="box anim-box" x="670" y="94" width="10" height="10" fill="#161b22" style="animation-delay: 0.92s" />
<rect class="box anim-box" x="670" y="108" width="10" height="10" fill="#161b22" style="animation-delay: 0.9400000000000001s" />
<rect class="box anim-box" x="670" y="122" width="10" height="10" fill="#161b22" style="animation-delay: 0.96s" />
<rect class="box anim-box" x="670" y="136" width="10" height="10" fill="#161b22" style="animation-delay: 0.98s" />
<rect class="box anim-box" x="670" y="150" width="10" height="10" fill="#161b22" style="animation-delay: 1.0s" />
<rect class="box anim-box" x="670" y="164" width="10" height="10" fill="#006d32" style="animation-delay: 1.02s" />
<rect class="box anim-box" x="684" y="80" width="10" height="10" fill="#006d32" style="animation-delay: 0.92s" />
<rect class="box anim-box" x="684" y="94" width="10" height="10" fill="#006d32" style="animation-delay: 0.9400000000000001s" />
<rect class="box anim-box" x="684" y="108" width="10" height="10" fill="#161b22" style="animation-delay: 0.96s" />
<rect class="box anim-box" x="684" y="122" width="10" height="10" fill="#39d353" style="animation-delay: 0.98s" />
<rect class="box anim-box" x="684" y="136" width="10" height="10" fill="#161b22" style="animation-delay: 1.0s" />
<rect class="box anim-box" x="684" y="150" width="10" height="10" fill="#161b22" style="animation-delay: 1.02s" />
<rect class="box anim-box" x="684" y="164" width="10" height="10" fill="#0e4429" style="animation-delay: 1.04s" />
<rect class="box anim-box" x="698" y="80" width="10" height="10" fill="#161b22" style="animation-delay: 0.9400000000000001s" />
<rect class="box anim-box" x="698" y="94" width="10" height="10" fill="#161b22" style="animation-delay: 0.96s" />
<rect class="box anim-box" x="698" y="108" width="10" height="10" fill="#161b22" style="animation-delay: 0.98s" />
<rect class="box anim-box" x="698" y="122" width="10" height="10" fill="#161b22" style="animation-delay: 1.0s" />
<rect class="box anim-box" x="698" y="136" width="10" height="10" fill="#006d32" style="animation-delay: 1.02s" />
<rect class="box anim-box" x="698" y="150" width="10" height="10" fill="#0e4429" style="animation-delay: 1.04s" />
<rect class="box anim-box" x="698" y="164" width="10" height="10" fill="#006d32" style="animation-delay: 1.06s" />
<rect class="box anim-box" x="712" y="80" width="10" height="10" fill="#006d32" style="animation-delay: 0.96s" />
<rect class="box anim-box" x="712" y="94" width="10" height="10" fill="#0e4429" style="animation-delay: 0.98s" />
<rect class="box anim-box" x="712" y="108" width="10" height="10" fill="#39d353" style="animation-delay: 1.0s" />
<rect class="box anim-box" x="712" y="122" width="10" height="10" fill="#0e4429" style="animation-delay: 1.02s" />
<rect class="box anim-box" x="712" y="136" width="10" height="10" fill="#0e4429" style="animation-delay: 1.04s" />
<rect class="box anim-box" x="712" y="150" width="10" height="10" fill="#161b22" style="animation-delay: 1.06s" />
<rect class="box anim-box" x="712" y="164" width="10" height="10" fill="#161b22" style="animation-delay: 1.08s" />
<rect class="box anim-box" x="726" y="80" width="10" height="10" fill="#161b22" style="animation-delay: 0.98s" />
<rect class="box anim-box" x="726" y="94" width="10" height="10" fill="#0e4429" style="animation-delay: 1.0s" />
<rect class="box anim-box" x="726" y="108" width="10" height="10" fill="#161b22" style="animation-delay: 1.02s" />
<rect class="box anim-box" x="726" y="122" width="10" height="10" fill="#161b22" style="animation-delay: 1.04s" />
<rect class="box anim-box" x="726" y="136" width="10" height="10" fill="#161b22" style="animation-delay: 1.06s" />
<rect class="box anim-box" x="726" y="150" width="10" height="10" fill="#161b22" style="animation-delay: 1.08s" />
<rect class="box anim-box" x="726" y="164" width="10" height="10" fill="#161b22" style="animation-delay: 1.1s" />
<rect class="box anim-box" x="740" y="80" width="10" height="10" fill="#161b22" style="animation-delay: 1.0s" />
<rect class="box anim-box" x="740" y="94" width="10" height="10" fill="#161b22" style="animation-delay: 1.02s" />
<rect class="box anim-box" x="740" y="108" width="10" height="10" fill="#161b22" style="animation-delay: 1.04s" />
<rect class="box anim-box" x="740" y="122" width="10" height="10" fill="#006d32" style="animation-delay: 1.06s" />
<rect class="box anim-box" x="740" y="136" width="10" height="10" fill="#161b22" style="animation-delay: 1.08s" />
<rect class="box anim-box" x="740" y="150" width="10" height="10" fill="#161b22" style="animation-delay: 1.1s" />
<rect class="box anim-box" x="740" y="164" width="10" height="10" fill="#161b22" style="animation-delay: 1.12s" />
<rect class="box anim-box" x="754" y="80" width="10" height="10" fill="#161b22" style="animation-delay: 1.02s" />
<rect class="box anim-box" x="754" y="94" width="10" height="10" fill="#161b22" style="animation-delay: 1.04s" />
<rect class="box anim-box" x="754" y="108" width="10" height="10" fill="#161b22" style="animation-delay: 1.06s" />
<rect class="box anim-box" x="754" y="122" width="10" height="10" fill="#161b22" style="animation-delay: 1.08s" />
<rect class="box anim-box" x="754" y="136" width="10" height="10" fill="#0e4429" style="animation-delay: 1.1s" />
<rect class="box anim-box" x="754" y="150" width="10" height="10" fill="#0e4429" style="animation-delay: 1.12s" />
<rect class="box anim-box" x="754" y="164" width="10" height="10" fill="#161b22" style="animation-delay: 1.1400000000000001s" />
<rect class="box anim-box" x="768" y="80" width="10" height="10" fill="#006d32" style="animation-delay: 1.04s" />
<rect class="box anim-box" x="768" y="94" width="10" height="10" fill="#0e4429" style="animation-delay: 1.06s" />
<rect class="box anim-box" x="768" y="108" width="10" height="10" fill="#0e4429" style="animation-delay: 1.08s" />
<text x="40" y="198" class="terminal text-bold">8,514 contributions in the last year</text>
</svg>